<svg width="280" height="60" viewBox="0 0 280 60" fill="none" xmlns="http://www.w3.org/2000/svg">
  <!-- Background Circle with Gradient -->
  <defs>
    <linearGradient id="logoGradient" x1="0%" y1="0%" x2="100%" y2="100%">
      <stop offset="0%" style="stop-color:#22D3EE;stop-opacity:1" />
      <stop offset="100%" style="stop-color:#2563EB;stop-opacity:1" />
    </linearGradient>
    <linearGradient id="textGradient" x1="0%" y1="0%" x2="100%" y2="0%">
      <stop offset="0%" style="stop-color:#FFFFFF;stop-opacity:1" />
      <stop offset="100%" style="stop-color:#22D3EE;stop-opacity:1" />
    </linearGradient>
  </defs>

  <!-- Icon Background -->
  <circle cx="30" cy="30" r="25" fill="url(#logoGradient)" opacity="0.1"/>
  <circle cx="30" cy="30" r="20" fill="url(#logoGradient)"/>

  <!-- Tech-Finance Icon Elements -->
  <!-- Chart Lines -->
  <path d="M18 38 L24 32 L30 35 L36 25 L42 28" stroke="white" stroke-width="2" fill="none" stroke-linecap="round" stroke-linejoin="round"/>

  <!-- Data Points -->
  <circle cx="24" cy="32" r="2" fill="white"/>
  <circle cx="30" cy="35" r="2" fill="white"/>
  <circle cx="36" cy="25" r="2" fill="white"/>

  <!-- Circuit Pattern -->
  <rect x="20" y="20" width="8" height="1" fill="white" opacity="0.6"/>
  <rect x="32" y="20" width="8" height="1" fill="white" opacity="0.6"/>
  <rect x="25" y="17" width="1" height="6" fill="white" opacity="0.6"/>
  <rect x="35" y="17" width="1" height="6" fill="white" opacity="0.6"/>

  <!-- Digital Elements -->
  <rect x="38" y="18" width="2" height="2" fill="white" opacity="0.8"/>
  <rect x="41" y="18" width="2" height="2" fill="white" opacity="0.6"/>
  <rect x="38" y="21" width="2" height="2" fill="white" opacity="0.6"/>
  <rect x="41" y="21" width="2" height="2" fill="white" opacity="0.8"/>

  <!-- Company Name -->
  <text x="70" y="25" font-family="Arial, sans-serif" font-size="20" font-weight="bold" fill="url(#textGradient)">
    Portfolio Tracker
  </text>

  <!-- Tagline -->
  <text x="70" y="40" font-family="Arial, sans-serif" font-size="10" fill="#64748B">
    Crypto Portfolio Intelligence
  </text>
</svg>