<svg width="150" height="40" viewBox="0 0 150 40" fill="none" xmlns="http://www.w3.org/2000/svg">
  <defs>
    <linearGradient id="compactGradient" x1="0%" y1="0%" x2="100%" y2="100%">
      <stop offset="0%" style="stop-color:#22D3EE;stop-opacity:1" />
      <stop offset="100%" style="stop-color:#2563EB;stop-opacity:1" />
    </linearGradient>
    <linearGradient id="compactTextGradient" x1="0%" y1="0%" x2="100%" y2="0%">
      <stop offset="0%" style="stop-color:#FFFFFF;stop-opacity:1" />
      <stop offset="100%" style="stop-color:#22D3EE;stop-opacity:1" />
    </linearGradient>
  </defs>

  <!-- Compact Icon -->
  <rect x="2" y="2" width="36" height="36" rx="8" fill="url(#compactGradient)"/>

  <!-- Tech Grid -->
  <path d="M8 20 L14 14 L20 18 L26 12 L32 15" stroke="white" stroke-width="1.5" fill="none" stroke-linecap="round"/>

  <!-- Data Points -->
  <circle cx="14" cy="14" r="1.5" fill="white"/>
  <circle cx="20" cy="18" r="1.5" fill="white"/>
  <circle cx="26" cy="12" r="1.5" fill="white"/>

  <!-- Circuit Elements -->
  <rect x="10" y="8" width="6" height="0.8" fill="white" opacity="0.6"/>
  <rect x="24" y="8" width="6" height="0.8" fill="white" opacity="0.6"/>
  <rect x="13" y="6" width="0.8" height="4" fill="white" opacity="0.6"/>
  <rect x="27" y="6" width="0.8" height="4" fill="white" opacity="0.6"/>

  <!-- Binary Pattern -->
  <rect x="28" y="24" width="1" height="1" fill="white" opacity="0.8"/>
  <rect x="30" y="24" width="1" height="1" fill="white" opacity="0.4"/>
  <rect x="32" y="24" width="1" height="1" fill="white" opacity="0.8"/>
  <rect x="28" y="26" width="1" height="1" fill="white" opacity="0.4"/>
  <rect x="30" y="26" width="1" height="1" fill="white" opacity="0.8"/>
  <rect x="32" y="26" width="1" height="1" fill="white" opacity="0.4"/>

  <!-- Company Name -->
  <text x="45" y="28" font-family="Arial, sans-serif" font-size="16" font-weight="bold" fill="url(#compactTextGradient)">
    DexTracker
  </text>
</svg>